# xmcd
#
# Track frame offsets:
#	150
#	18847
#	41539
#	59740
#	79293
#	87976
#	107197
#	124302
#	148479
#	152953
#	201649
#
# Disc length: 3875 seconds
#
# Revision: 4
# Processed by: cddbd v1.5.2PL0 Copyright (c) Steve Scherf et al.
# Submitted via: audiograbber 1.83.01
#
DISCID=a90f210b
DTITLE=Bring Me The Horizon - Suicide Season (Enhanced CD)
DYEAR=2008
DGENRE=Metalcore
TTITLE0=The Comedown
TTITLE1=Chelsea Smile
TTITLE2=It Was Written In Blood
TTITLE3=Death Breath
TTITLE4=Football Season Is Over
TTITLE5=Sleep With One Eye Open
TTITLE6=Diamonds Aren't Forever
TTITLE7=The Sadness Will Never End
TTITLE8=No Need For Introductions, I've Read About Girls Like You On The Backs 
TTITLE8=Of Toilet Doors
TTITLE9=Suicide Season
TTITLE10=Daten-CD
EXTD=
EXTT0=
EXTT1=
EXTT2=
EXTT3=
EXTT4=
EXTT5=
EXTT6=
EXTT7=
EXTT8=
EXTT9=
EXTT10=
PLAYORDER=
